HIERARCHY
ROOT root
{
	OFFSET	0	13.1	24.9
	CHANNELS 6  Xposition Yposition Zposition Xrotation Yrotation Zrotation
	JOINT spine_1
	{
		OFFSET	0	9.99999	0
		CHANNELS 3  Xrotation Yrotation Zrotation
		JOINT spine_2
		{
			OFFSET	0	112	-10
			CHANNELS 3  Xrotation Yrotation Zrotation
			JOINT spine_3
			{
				OFFSET	0	206.5	19.3
				CHANNELS 3  Xrotation Yrotation Zrotation
				JOINT spine_4
				{
					OFFSET	0	110.4	14.6
					CHANNELS 3  Xrotation Yrotation Zrotation
					JOINT neck_1
					{
						OFFSET	0	71.8	-50.3
						CHANNELS 3  Xrotation Yrotation Zrotation
						JOINT neck_2
						{
							OFFSET	0	86.2	-25.8
							CHANNELS 3  Xrotation Yrotation Zrotation
							JOINT head_ee
							{
								OFFSET	0	179.8	-8.7
								CHANNELS 3  Xrotation Yrotation Zrotation
								End Site
								{
									OFFSET	1	0	0
								}
							}
						}
					}
					JOINT left_clavicle
					{
						OFFSET	-43.2	22.4	-70.8
						CHANNELS 3  Xrotation Yrotation Zrotation
						JOINT left_shoulder
						{
							OFFSET	-93.9	-5.79999	48.7
							CHANNELS 3  Xrotation Yrotation Zrotation
							JOINT left_elbow
							{
								OFFSET	-291.4	-30.8	15.2
								CHANNELS 3  Xrotation Yrotation Zrotation
								JOINT left_lowarm_twist
								{
									OFFSET	-110.7	-3.89999	13.6
									CHANNELS 3  Xrotation Yrotation Zrotation
									JOINT left_hand
									{
										OFFSET	-110.7	-3.89999	13.6
										CHANNELS 3  Xrotation Yrotation Zrotation
										JOINT left_ee
										{
											OFFSET	-80.8	-5.10001	12.1
											CHANNELS 3  Xrotation Yrotation Zrotation
											End Site
											{
												OFFSET	1	0	0
											}
										}
									}
								}
							}
						}
					}
					JOINT right_clavicle
					{
						OFFSET	43.2	22.4	-70.8
						CHANNELS 3  Xrotation Yrotation Zrotation
						JOINT right_shoulder
						{
							OFFSET	93.9	-5.79999	48.7
							CHANNELS 3  Xrotation Yrotation Zrotation
							JOINT right_elbow
							{
								OFFSET	291.4	-30.8	15.2
								CHANNELS 3  Xrotation Yrotation Zrotation
								JOINT right_lowarm_twist
								{
									OFFSET	110.7	-3.89999	13.6
									CHANNELS 3  Xrotation Yrotation Zrotation
									JOINT right_hand
									{
										OFFSET	110.7	-3.89999	13.6
										CHANNELS 3  Xrotation Yrotation Zrotation
										JOINT right_ee
										{
											OFFSET	80.8	-5.10001	12.1
											CHANNELS 3  Xrotation Yrotation Zrotation
											End Site
											{
												OFFSET	1	0	0
											}
										}
									}
								}
							}
						}
					}
				}
			}
		}
	}
	JOINT left_hip
	{
		OFFSET	-82.8	-127.5	0.300001
		CHANNELS 3  Xrotation Yrotation Zrotation
		JOINT left_knee
		{
			OFFSET	-28.2	-396.7	2.2
			CHANNELS 3  Xrotation Yrotation Zrotation
			JOINT left_ankle
			{
				OFFSET	-11.7	-411.3	35.4
				CHANNELS 3  Xrotation Yrotation Zrotation
				JOINT left_toes
				{
					OFFSET	0	-60	-88.6
					CHANNELS 3  Xrotation Yrotation Zrotation
					JOINT left_foot_ee
					{
						OFFSET	-22.5	-16.5	-42.2
						CHANNELS 3  Xrotation Yrotation Zrotation
						End Site
						{
							OFFSET	1	0	0
						}
					}
				}
			}
		}
	}
	JOINT right_hip
	{
		OFFSET	82.8	-127.5	0.300001
		CHANNELS 3  Xrotation Yrotation Zrotation
		JOINT right_knee
		{
			OFFSET	28.2	-396.7	2.2
			CHANNELS 3  Xrotation Yrotation Zrotation
			JOINT right_ankle
			{
				OFFSET	11.7	-411.3	35.4
				CHANNELS 3  Xrotation Yrotation Zrotation
				JOINT right_toes
				{
					OFFSET	0	-60	-88.6
					CHANNELS 3  Xrotation Yrotation Zrotation
					JOINT right_foot_ee
					{
						OFFSET	22.5	-16.5	-42.2
						CHANNELS 3  Xrotation Yrotation Zrotation
						End Site
						{
							OFFSET	1	0	0
						}
					}
				}
			}
		}
	}
}
MOTION
Frames: 12
Frame Time: 0.02
1041.4 574.639 -1682.42 -38.146575333 72.7276372488 35.0985760015 3.93289 0.155622 1.32974 3.93387 0.0706994 1.33695 3.93497 -0.120673 1.33337 3.9325 0.0914026 1.33569 -13.0296 9.65024 0.012925 -13.2545 18.3536 2.94469 -0.0 0.0 -0.0 -3.34445 12.3336 -4.14706 -32.1024 -53.4 67.734 0.707417 -19.3122 0.120365 -56.9594 -4.90721 4.9965 -0.294177 2.96468 -0.702466 -0.0 0.0 -0.0 10.4464 -16.6406 -18.7569 -21.7008 60.1589 -46.5546 1.09554 28.4877 -0.278114 39.4261 0.31975 4.92826 2.14954 16.0611 -7.58334 0.0 0.0 0.0 35.9622 -8.27188 -1.46135 4.97753 -0.236739 -0.726734 -6.37591 16.3628 0.954001 -17.5 0.0 0.0 -0.0 0.0 -0.0 -3.80303 -10.0543 0.997288 -13.6309 -0.317135 -2.06289 37.6514 16.7151 5.0095 -0.602196 0.0 0.0 0.0 0.0 0.0 
1041.4 574.639 -1682.42 -38.9666132915 73.0444293477 35.9566017561 3.93289 0.155622 1.32974 3.93387 0.0706994 1.33695 3.93497 -0.120673 1.33337 3.9325 0.0914026 1.33569 -13.0296 9.65024 0.012925 -13.2545 18.3536 2.94469 -0.0 0.0 -0.0 -3.34445 12.3336 -4.14706 -32.1024 -53.4 67.734 0.707417 -19.3122 0.120365 -56.9594 -4.90721 4.9965 -0.294177 2.96468 -0.702466 -0.0 0.0 -0.0 10.4464 -16.6406 -18.7569 -21.7008 60.1589 -46.5546 1.09554 28.4877 -0.278114 39.4261 0.31975 4.92826 2.14954 16.0611 -7.58334 0.0 0.0 0.0 35.9622 -8.27188 -1.46135 4.97753 -0.236739 -0.726734 -6.37591 16.3628 0.954001 -17.5 0.0 0.0 -0.0 0.0 -0.0 -3.80303 -10.0543 0.997288 -13.6309 -0.317135 -2.06289 37.6514 16.7151 5.0095 -0.602196 0.0 0.0 0.0 0.0 0.0 
1041.4 574.639 -1682.42 -40.1870752067 73.4883591428 37.2310170056 3.93289 0.155622 1.32974 3.93387 0.0706994 1.33695 3.93497 -0.120673 1.33337 3.9325 0.0914026 1.33569 -13.0296 9.65024 0.012925 -13.2545 18.3536 2.94469 -0.0 0.0 -0.0 -3.34445 12.3336 -4.14706 -32.1024 -53.4 67.734 0.707417 -19.3122 0.120365 -56.9594 -4.90721 4.9965 -0.294177 2.96468 -0.702466 -0.0 0.0 -0.0 10.4464 -16.6406 -18.7569 -21.7008 60.1589 -46.5546 1.09554 28.4877 -0.278114 39.4261 0.31975 4.92826 2.14954 16.0611 -7.58334 0.0 0.0 0.0 35.9622 -8.27188 -1.46135 4.97753 -0.236739 -0.726734 -6.37591 16.3628 0.954001 -17.5 0.0 0.0 -0.0 0.0 -0.0 -3.80303 -10.0543 0.997288 -13.6309 -0.317135 -2.06289 37.6514 16.7151 5.0095 -0.602196 0.0 0.0 0.0 0.0 0.0 
1041.4 574.639 -1682.42 -40.240201899 73.5069749773 37.2864260988 3.93289 0.155622 1.32974 3.93387 0.0706994 1.33695 3.93497 -0.120673 1.33337 3.9325 0.0914026 1.33569 -13.0296 9.65024 0.012925 -13.2545 18.3536 2.94469 -0.0 0.0 -0.0 -3.34445 12.3336 -4.14706 -32.1024 -53.4 67.734 0.707417 -19.3122 0.120365 -56.9594 -4.90721 4.9965 -0.294177 2.96468 -0.702466 -0.0 0.0 -0.0 10.4464 -16.6406 -18.7569 -21.7008 60.1589 -46.5546 1.09554 28.4877 -0.278114 39.4261 0.31975 4.92826 2.14954 16.0611 -7.58334 0.0 0.0 0.0 35.9622 -8.27188 -1.46135 4.97753 -0.236739 -0.726734 -6.37591 16.3628 0.954001 -17.5 0.0 0.0 -0.0 0.0 -0.0 -3.80303 -10.0543 0.997288 -13.6309 -0.317135 -2.06289 37.6514 16.7151 5.0095 -0.602196 0.0 0.0 0.0 0.0 0.0 
1028.59918216 578.182 -1681.62213558 -44.1513506237 72.5732845449 41.2587157482 4.06181 0.248905 1.16027 4.06254 0.174574 1.17376 4.06568 0.00814621 1.18664 4.06377 0.195438 1.17046 -12.0868 10.9219 1.91032 -12.2918 19.5041 4.97678 -0.0 0.0 -0.0 -3.54575 12.1011 -4.53477 -29.8286 -52.557 68.5713 0.711309 -19.4105 0.121655 -56.2962 -4.82606 4.97102 -0.198748 -0.0283408 -1.33932 -0.0 0.0 -0.0 10.5742 -17.1256 -18.8958 -22.7854 59.8168 -46.001 1.09798 28.5412 -0.279279 36.7945 0.19312 4.61652 2.08381 13.8737 -8.13578 0.0 0.0 0.0 36.0255 -8.18943 -1.53661 6.03161 -0.294939 -0.877887 -5.426 20.6435 0.821214 -17.001 0.0 0.0 -0.0 0.0 -0.0 -3.11989 -9.84042 1.19593 -12.1368 -0.306454 -1.8339 32.6071 20.5373 4.64042 3.34415 -0.0 -0.0 0.0 0.0 0.0 
1028.60282703 578.182 -1681.56566453 -44.7183085572 72.7537959199 41.8526543419 4.06181 0.248905 1.16027 4.06254 0.174574 1.17376 4.06568 0.00814621 1.18664 4.06377 0.195438 1.17046 -12.0868 10.9219 1.91032 -12.2918 19.5041 4.97678 -0.0 0.0 -0.0 -3.54575 12.1011 -4.53477 -29.8286 -52.557 68.5713 0.711309 -19.4105 0.121655 -56.2962 -4.82606 4.97102 -0.198748 -0.0283408 -1.33932 -0.0 0.0 -0.0 10.5742 -17.1256 -18.8958 -22.7854 59.8168 -46.001 1.09798 28.5412 -0.279279 36.7945 0.19312 4.61652 2.08381 13.8737 -8.13578 0.0 0.0 0.0 36.0255 -8.18943 -1.53661 6.03161 -0.294939 -0.877887 -5.426 20.6435 0.821214 -17.001 0.0 0.0 -0.0 0.0 -0.0 -3.11989 -9.84042 1.19593 -12.1368 -0.306454 -1.8339 32.6071 20.5373 4.64042 3.34415 -0.0 -0.0 0.0 0.0 0.0 
1003.52486251 593.306 -1675.93475797 -47.4089856371 72.2572685563 44.5326315307 4.30019 0.181497 1.13691 4.3009 0.108789 1.14616 4.3026 -0.048372 1.15029 4.30078 0.13389 1.1435 -13.037 12.6891 5.42171 -13.2425 20.7791 9.01145 -0.0 0.0 -0.0 -3.72403 12.3245 -4.79096 -27.4097 -51.7267 68.1582 0.754797 -20.5009 0.136498 -54.8405 -4.64896 4.91181 -0.0166599 -4.39961 -1.97567 -0.0 0.0 -0.0 10.552 -19.2501 -18.4873 -24.2588 59.2647 -45.202 1.03142 27.0634 -0.248231 34.2828 0.0857523 4.31392 2.02242 13.0786 -8.077 0.0 0.0 0.0 35.1653 -8.54521 -0.899862 5.8435 -0.284348 -0.85099 -10.7125 24.8543 1.66431 -16.8857 0.0 0.0 -0.0 0.0 -0.0 -2.34132 -8.14088 1.91919 -10.5888 -0.289094 -1.59701 28.4168 23.9825 4.3 10.4569 -0.0 -0.0 0.0 0.0 0.0 
961.214699446 598.277 -1672.9452886 -55.3729870641 73.1017599536 53.3076333084 4.54653 -0.0359475 1.03309 4.54712 -0.101609 1.02871 4.54487 -0.236586 1.00628 4.54346 -0.0747023 1.03101 -13.059 12.4981 6.79094 -13.1814 19.5633 10.2352 -0.0 0.0 -0.0 -4.22524 12.126 -5.68563 -19.8636 -50.4962 71.5953 0.709048 -19.3534 0.120905 -57.2426 -4.94196 5.00709 1.87047 -12.7308 7.20111 -0.0 0.0 -0.0 10.3206 -16.9442 -18.4929 -26.7449 55.8461 -45.9492 0.947004 25.1317 -0.211092 33.4824 0.054345 4.21656 2.74249 15.9274 -11.6652 0.0 0.0 0.0 33.4843 -8.70765 -0.0620861 8.01749 -0.412122 -1.1597 -12.9353 24.9337 2.0154 -20.3287 0.0 0.0 -0.0 0.0 -0.0 -0.898479 -8.81113 3.17514 -15.8386 -0.32198 -2.40155 27.9247 25.6058 4.31221 18.9869 -0.0 -0.0 0.0 0.0 0.0 
948.990373311 599.237 -1669.41728754 -55.8735828095 72.4544229119 53.6506088229 4.62356 0.220918 1.09746 4.62422 0.150641 1.10929 4.62663 0.00445234 1.11946 4.62493 0.181184 1.10471 -10.7397 11.5565 7.1241 -10.7198 17.1152 9.90578 -0.0 0.0 -0.0 -4.43684 10.8149 -6.34279 -17.3691 -48.9897 72.3969 0.709604 -19.3675 0.121089 -57.5418 -4.97871 5.0181 2.78388 -13.032 13.3077 -0.0 0.0 -0.0 10.28 -17.9828 -18.255 -27.201 55.1506 -45.9305 0.924314 24.6017 -0.201551 30.1647 -0.0612362 3.80866 3.52255 16.9491 -16.5266 0.0 0.0 0.0 33.668 -8.8917 -0.114765 6.1882 -0.303822 -0.900251 -10.5513 25.4365 1.64387 -20.9983 0.0 0.0 -0.0 0.0 -0.0 -0.63463 -10.0541 4.12029 -15.605 -0.322085 -2.36571 29.3801 27.6102 4.59361 23.3378 -0.0 -0.0 0.0 0.0 0.0 
926.013081076 601.685 -1665.18043025 -63.6701464178 73.3535807898 61.4173852423 4.42961 0.0553743 1.33698 4.43061 -0.0298059 1.3378 4.42922 -0.208903 1.32172 4.42678 0.00244101 1.33813 -10.9009 10.5835 8.38922 -10.7942 14.4603 10.8756 -0.0 0.0 -0.0 -3.47125 8.86942 -5.05449 -13.4736 -47.1184 72.5183 0.669889 -18.3581 0.108248 -57.6568 -4.99286 5.02227 3.41904 -13.3238 17.5924 -0.0 0.0 -0.0 10.025 -16.896 -17.9977 -28.5939 54.3848 -46.7853 0.890616 23.8061 -0.187735 30.6803 -0.0448291 3.87247 3.03308 15.7577 -13.7356 0.0 0.0 0.0 33.6782 -9.28273 1.04112 5.57682 -0.269486 -0.8128 -7.47148 25.2368 1.15798 -21.7831 0.0 0.0 -0.0 0.0 -0.0 0.293663 -11.2671 5.73751 -15.8117 -0.321999 -2.39742 27.821 31.4805 4.61594 27.6511 -0.0 -0.0 0.0 0.0 0.0 
900.537695732 602.614 -1668.2669429 -76.8710649343 75.1508586734 75.5069529013 4.24456 0.284611 1.41877 4.24566 0.193763 1.434 4.2498 -0.00471947 1.44703 4.24695 0.223847 1.42962 -8.96997 10.1293 7.74958 -8.85142 13.6382 9.94203 -0.0 0.0 -0.0 -3.84661 6.8493 -6.13562 -6.21005 -46.5606 72.924 0.759627 -20.6211 0.138194 -61.7256 -5.49811 5.15165 3.00839 -2.81954 19.3987 -0.0 0.0 -0.0 9.73029 -14.8112 -17.7867 -28.1932 53.1911 -50.4319 0.63397 17.435 -0.0972101 30.5353 -0.0494993 3.85455 3.14464 18.3476 -13.2316 0.0 0.0 0.0 32.7234 -9.6703 1.32214 3.42615 -0.156176 -0.502425 -1.108 21.1958 0.166666 -28.8048 0.0 0.0 -0.0 0.0 -0.0 1.18832 -12.2671 4.81844 -21.1114 -0.280773 -3.20925 32.2005 29.6911 5.05627 28.3764 -0.0 -0.0 0.0 0.0 0.0 
887.137674601 600.013 -1665.90765739 -84.9164209244 76.5623451891 83.8292460176 4.03305 0.234389 1.39032 4.03412 0.145453 1.40241 4.03705 -0.0534885 1.40892 4.03432 0.169673 1.39969 -8.81407 9.89283 7.44776 -8.70405 13.3723 9.57866 -0.0 0.0 -0.0 -2.79314 6.48006 -4.28411 -4.78268 -44.4802 70.9782 0.77546 -21.0137 0.143821 -63.6974 -5.74584 5.20133 2.59753 1.75921 18.3303 -0.0 0.0 -0.0 9.87877 -13.8794 -18.1699 -29.3833 52.6289 -50.705 0.495435 13.7894 -0.0599083 30.8209 -0.040253 3.88986 3.50365 22.4251 -13.5724 0.0 0.0 0.0 32.6891 -10.16 1.4824 -2.82787 0.10606 0.420983 7.57083 16.341 -1.09633 -31.8185 0.0 0.0 -0.0 0.0 -0.0 1.89057 -12.2908 4.85778 -24.8878 -0.205694 -3.78378 32.2966 28.4328 4.99121 29.4484 -0.0 -0.0 0.0 0.0 0.0 
